<?xml version="1.0" encoding="UTF-8"?>
<svg width="48" height="48" version="1.1" viewBox="0 0 48 48" xmlns="http://www.w3.org/2000/svg">
 <g>
  <path d="m21.395 42.721c0.04538-1.4908 0.12165-3.5265 0.41874-6.0973 0.32913-2.8475 0.94083-3.887 1.8081-6.5272 0.59317-1.2555 2.0026-3.4379 2.9798-3.7605 1.179-0.71065 2.3612-1.5044 3.3761-2.4738 0.85637-1.5304 1.4733-3.0171 1.3208-5.0637-0.07447-1.136-0.48738-2.2034 0.5414-3.1553 0.52764-0.13612 1.665 1.2081 2.1501 1.8395 0.72839 0.51598 3.4219 0.29998 4.0313 0.87021 0.39699 1.0329 1.2272 2.3243 2.1057 2.9114 0.03602 1.9974-0.43596 2.4283-3.0985 2.7522-1.6078 1.1411-1.038 4.9784-1.3841 6.8224-0.53852 2.8693-1.1321 3.3411-1.1385 6.0586 0.07202 1.416 0.1606 1.6553 0.34045 3.4848-6.815 2.7227-7.5462 2.5969-13.451 2.3389z" fill="#646466"/>
  <path d="m17 5c-7.3555 3.1587-12.503 10.797-13 19-0.71202 11.844 9.1439 21.289 21 22 6.8893 0.40939 17.023-3.2437 18-9-5.0169 1.9705-9.2864 2.5549-13.535 2.7158-11.619 0.43998-18.023-7.2826-18.023-18.993 3e-3 -5.4163 1.8358-11.788 5.5581-15.722z" fill="#e31c22" stroke-width="0"/>
  <path d="m27 1-9.8807 9.5974v20c2.7819-2.0961 4.5931-5.5425 6-8v-15l11 3 8-6c-6.4856-0.3281-10.936-0.57533-15.119-3.5974z" fill="#e31c22" stroke-width="0"/>
 </g>
</svg>
