<svg width="48" height="48" version="1.1" viewBox="0 0 48 48" xmlns="http://www.w3.org/2000/svg">
 <g>
  <path d="m17 5c-7.3555 3.1587-12.503 10.797-13 19-0.71202 11.844 9.1439 21.289 21 22 6.8893 0.40939 17.023-3.2437 18-9-5.0169 1.9705-9.2864 2.5549-13.535 2.7158-11.619 0.43998-18.023-7.2826-18.023-18.993 3e-3 -5.4163 1.8358-11.788 5.5581-15.722z" fill="#f00" stroke="#000" stroke-linejoin="bevel" stroke-width="1.5"/>
  <path d="m27 1-9.8807 9.5974v20c2.7819-2.0961 4.5931-5.5425 6-8v-15l11 3 8-6c-6.4856-0.3281-10.936-0.57533-15.119-3.5974z" fill="#f00" stroke="#000" stroke-linejoin="bevel" stroke-width="1.5"/>
  <path d="m30 39c0.02381-0.78235 0.06384-1.8506 0.21974-3.1997 0.17272-1.4943 0.49372-2.0398 0.94884-3.4253 0.31128-0.65887 1.0509-1.8041 1.5637-1.9734 0.61873-0.37293 1.2391-0.78946 1.7717-1.2982 0.4494-0.80311 0.77317-1.5833 0.69313-2.6573-0.03908-0.59613-0.25576-1.1563 0.28411-1.6558 0.27689-0.07143 0.87374 0.634 1.1283 0.96534 0.38224 0.27077 1.7957 0.15742 2.1155 0.45666 0.20833 0.54201 0.64402 1.2197 1.105 1.5278 0.0189 1.0482-0.22878 1.2743-1.626 1.4443-0.84375 0.59883-0.54473 2.6125-0.72634 3.5802-0.2826 1.5057-0.59407 1.7533-0.59745 3.1794 0.03779 0.74309 0.08428 0.86867 0.17866 1.8287-3.5763 1.4288-3.96 1.3628-7.0588 1.2274z" fill="#000"/>
 </g>
 <path d="m27 9v31" fill="none" stroke="#000" stroke-width="1.5"/>
</svg>
