<?xml version="1.0" encoding="UTF-8"?>
<svg width="70" height="70" version="1.1" viewBox="0 0 70 70" xmlns="http://www.w3.org/2000/svg" xmlns:cc="http://creativecommons.org/ns#" xmlns:dc="http://purl.org/dc/elements/1.1/" xmlns:rdf="http://www.w3.org/1999/02/22-rdf-syntax-ns#">
 <metadata>
  <rdf:RDF>
   <cc:Work rdf:about="">
    <dc:format>image/svg+xml</dc:format>
    <dc:type rdf:resource="http://purl.org/dc/dcmitype/StillImage"/>
   </cc:Work>
  </rdf:RDF>
 </metadata>
 <path d="m35 5-24 24 7 7 17-18 18 18 6-7z" fill="#f88" stroke="#000" stroke-linecap="square" stroke-linejoin="bevel" stroke-width="2"/>
 <g fill="none" stroke="#000">
  <path d="m35 41v22" stroke-width="2"/>
  <path d="m29 48 6 11" stroke-linejoin="bevel" stroke-width="2.268"/>
  <path d="m41 47-5.72 5.373" stroke-linejoin="bevel" stroke-width="2.268"/>
 </g>
 <g stroke="#000">
  <path d="m35 18-24 24 12 12 12-13 12 13 12-12z" fill="#f00" stroke-linecap="square" stroke-linejoin="bevel" stroke-width="2"/>
  <path d="m47 63h-24" fill="none" stroke-width="2"/>
  <path d="m17 48 18-18 18 18" fill="none" stroke-linejoin="bevel" stroke-width="2"/>
  <path d="m35 5-24 24 7 7 17-18 18 18 6-7z" fill="#f88" stroke-linecap="square" stroke-linejoin="bevel" stroke-width="2"/>
 </g>
 <g fill="none" stroke="#000">
  <path d="m35 41v22" stroke-width="2"/>
  <path d="m29 48 6 11" stroke-linejoin="bevel" stroke-width="2.268"/>
  <path d="m41 47-5.72 5.373" stroke-linejoin="bevel" stroke-width="2.268"/>
 </g>
 <path d="m35 18-24 24 12 12 12-13 12 13 12-12z" fill="#f00" stroke="#000" stroke-linecap="square" stroke-linejoin="bevel" stroke-width="2"/>
 <g fill="none" stroke="#000">
  <path d="m47 63h-24" stroke-width="2"/>
  <g stroke-width="2">
   <path d="m17 48 18-18 18 18" stroke-linejoin="bevel"/>
   <path d="m41 66h-12"/>
   <path d="m35 56 2 7"/>
  </g>
 </g>
</svg>
